<svg xmlns="http://www.w3.org/2000/svg" xmlns:xlink="http://www.w3.org/1999/xlink" width="2000" zoomAndPan="magnify"
     viewBox="0 0 1500 1499.999933" height="2000" preserveAspectRatio="xMidYMid meet" version="1.0">
   <defs>
      <clipPath id="95575b8948">
         <path
            d="M 73.144531 36.828125 L 342.375 36.828125 L 342.375 306.054688 L 73.144531 306.054688 Z M 73.144531 36.828125 "
            clip-rule="nonzero"/>
      </clipPath>
      <clipPath id="a3f3bad122">
         <path
            d="M 207.761719 36.828125 C 133.414062 36.828125 73.144531 97.09375 73.144531 171.441406 C 73.144531 245.789062 133.414062 306.054688 207.761719 306.054688 C 282.105469 306.054688 342.375 245.789062 342.375 171.441406 C 342.375 97.09375 282.105469 36.828125 207.761719 36.828125 Z M 207.761719 36.828125 "
            clip-rule="nonzero"/>
      </clipPath>
      <clipPath id="9b837798ec">
         <path
            d="M 0.144531 0.828125 L 269.375 0.828125 L 269.375 270.054688 L 0.144531 270.054688 Z M 0.144531 0.828125 "
            clip-rule="nonzero"/>
      </clipPath>
      <clipPath id="d2259d3ff9">
         <path
            d="M 134.761719 0.828125 C 60.414062 0.828125 0.144531 61.09375 0.144531 135.441406 C 0.144531 209.789062 60.414062 270.054688 134.761719 270.054688 C 209.105469 270.054688 269.375 209.789062 269.375 135.441406 C 269.375 61.09375 209.105469 0.828125 134.761719 0.828125 Z M 134.761719 0.828125 "
            clip-rule="nonzero"/>
      </clipPath>
      <clipPath id="85437c60d2">
         <rect x="0" width="270" y="0" height="271"/>
      </clipPath>
      <clipPath id="acf2ce6286">
         <path
            d="M 73.144531 36.828125 L 342.371094 36.828125 L 342.371094 306.054688 L 73.144531 306.054688 Z M 73.144531 36.828125 "
            clip-rule="nonzero"/>
      </clipPath>
      <clipPath id="ae8b4c981e">
         <path
            d="M 207.757812 36.828125 C 133.414062 36.828125 73.144531 97.09375 73.144531 171.441406 C 73.144531 245.785156 133.414062 306.054688 207.757812 306.054688 C 282.101562 306.054688 342.371094 245.785156 342.371094 171.441406 C 342.371094 97.09375 282.101562 36.828125 207.757812 36.828125 Z M 207.757812 36.828125 "
            clip-rule="nonzero"/>
      </clipPath>
      <clipPath id="d779c7c45b">
         <path
            d="M 1149.730469 36.828125 L 1418.960938 36.828125 L 1418.960938 306.054688 L 1149.730469 306.054688 Z M 1149.730469 36.828125 "
            clip-rule="nonzero"/>
      </clipPath>
      <clipPath id="790ef13431">
         <path
            d="M 1284.34375 36.828125 C 1210 36.828125 1149.730469 97.09375 1149.730469 171.441406 C 1149.730469 245.789062 1210 306.054688 1284.34375 306.054688 C 1358.691406 306.054688 1418.960938 245.789062 1418.960938 171.441406 C 1418.960938 97.09375 1358.691406 36.828125 1284.34375 36.828125 Z M 1284.34375 36.828125 "
            clip-rule="nonzero"/>
      </clipPath>
      <clipPath id="997bb8a1e7">
         <path
            d="M 0.730469 0.828125 L 269.960938 0.828125 L 269.960938 270.054688 L 0.730469 270.054688 Z M 0.730469 0.828125 "
            clip-rule="nonzero"/>
      </clipPath>
      <clipPath id="1f9553ca5b">
         <path
            d="M 135.34375 0.828125 C 61 0.828125 0.730469 61.09375 0.730469 135.441406 C 0.730469 209.789062 61 270.054688 135.34375 270.054688 C 209.691406 270.054688 269.960938 209.789062 269.960938 135.441406 C 269.960938 61.09375 209.691406 0.828125 135.34375 0.828125 Z M 135.34375 0.828125 "
            clip-rule="nonzero"/>
      </clipPath>
      <clipPath id="1d043b11a0">
         <rect x="0" width="270" y="0" height="271"/>
      </clipPath>
      <clipPath id="9ab84fe20d">
         <path
            d="M 1149.730469 36.828125 L 1418.957031 36.828125 L 1418.957031 306.054688 L 1149.730469 306.054688 Z M 1149.730469 36.828125 "
            clip-rule="nonzero"/>
      </clipPath>
      <clipPath id="41f4318a8a">
         <path
            d="M 1284.34375 36.828125 C 1209.996094 36.828125 1149.730469 97.09375 1149.730469 171.441406 C 1149.730469 245.785156 1209.996094 306.054688 1284.34375 306.054688 C 1358.6875 306.054688 1418.957031 245.785156 1418.957031 171.441406 C 1418.957031 97.09375 1358.6875 36.828125 1284.34375 36.828125 Z M 1284.34375 36.828125 "
            clip-rule="nonzero"/>
      </clipPath>
      <clipPath id="339f96230f">
         <path
            d="M 1157.621094 1193.941406 L 1426.851562 1193.941406 L 1426.851562 1463.167969 L 1157.621094 1463.167969 Z M 1157.621094 1193.941406 "
            clip-rule="nonzero"/>
      </clipPath>
      <clipPath id="2fce4b6059">
         <path
            d="M 1292.238281 1463.167969 C 1366.582031 1463.167969 1426.851562 1402.902344 1426.851562 1328.554688 C 1426.851562 1254.207031 1366.582031 1193.941406 1292.238281 1193.941406 C 1217.890625 1193.941406 1157.621094 1254.207031 1157.621094 1328.554688 C 1157.621094 1402.902344 1217.890625 1463.167969 1292.238281 1463.167969 Z M 1292.238281 1463.167969 "
            clip-rule="nonzero"/>
      </clipPath>
      <clipPath id="241ec586d9">
         <path
            d="M 0.621094 0.941406 L 269.851562 0.941406 L 269.851562 270.167969 L 0.621094 270.167969 Z M 0.621094 0.941406 "
            clip-rule="nonzero"/>
      </clipPath>
      <clipPath id="ae5674d821">
         <path
            d="M 135.238281 270.167969 C 209.582031 270.167969 269.851562 209.902344 269.851562 135.554688 C 269.851562 61.207031 209.582031 0.941406 135.238281 0.941406 C 60.890625 0.941406 0.621094 61.207031 0.621094 135.554688 C 0.621094 209.902344 60.890625 270.167969 135.238281 270.167969 Z M 135.238281 270.167969 "
            clip-rule="nonzero"/>
      </clipPath>
      <clipPath id="30d5eb8cfb">
         <rect x="0" width="270" y="0" height="271"/>
      </clipPath>
      <clipPath id="93179e18ec">
         <path
            d="M 1157.625 1193.941406 L 1426.851562 1193.941406 L 1426.851562 1463.167969 L 1157.625 1463.167969 Z M 1157.625 1193.941406 "
            clip-rule="nonzero"/>
      </clipPath>
      <clipPath id="379a620f0e">
         <path
            d="M 1292.238281 1463.167969 C 1366.582031 1463.167969 1426.851562 1402.902344 1426.851562 1328.554688 C 1426.851562 1254.210938 1366.582031 1193.941406 1292.238281 1193.941406 C 1217.894531 1193.941406 1157.625 1254.210938 1157.625 1328.554688 C 1157.625 1402.902344 1217.894531 1463.167969 1292.238281 1463.167969 Z M 1292.238281 1463.167969 "
            clip-rule="nonzero"/>
      </clipPath>
      <clipPath id="d9abf8178a">
         <path
            d="M 81.039062 1193.941406 L 350.265625 1193.941406 L 350.265625 1463.167969 L 81.039062 1463.167969 Z M 81.039062 1193.941406 "
            clip-rule="nonzero"/>
      </clipPath>
      <clipPath id="3c5de0fd8b">
         <path
            d="M 215.652344 1463.167969 C 290 1463.167969 350.265625 1402.902344 350.265625 1328.554688 C 350.265625 1254.207031 290 1193.941406 215.652344 1193.941406 C 141.304688 1193.941406 81.039062 1254.207031 81.039062 1328.554688 C 81.039062 1402.902344 141.304688 1463.167969 215.652344 1463.167969 Z M 215.652344 1463.167969 "
            clip-rule="nonzero"/>
      </clipPath>
      <clipPath id="c44527e2e7">
         <path
            d="M 0.0390625 0.941406 L 269.265625 0.941406 L 269.265625 270.167969 L 0.0390625 270.167969 Z M 0.0390625 0.941406 "
            clip-rule="nonzero"/>
      </clipPath>
      <clipPath id="eda2ecfdb6">
         <path
            d="M 134.652344 270.167969 C 209 270.167969 269.265625 209.902344 269.265625 135.554688 C 269.265625 61.207031 209 0.941406 134.652344 0.941406 C 60.304688 0.941406 0.0390625 61.207031 0.0390625 135.554688 C 0.0390625 209.902344 60.304688 270.167969 134.652344 270.167969 Z M 134.652344 270.167969 "
            clip-rule="nonzero"/>
      </clipPath>
      <clipPath id="0ed3da7d60">
         <rect x="0" width="270" y="0" height="271"/>
      </clipPath>
      <clipPath id="ff855b4f7e">
         <path
            d="M 81.039062 1193.941406 L 350.265625 1193.941406 L 350.265625 1463.167969 L 81.039062 1463.167969 Z M 81.039062 1193.941406 "
            clip-rule="nonzero"/>
      </clipPath>
      <clipPath id="127df16cb8">
         <path
            d="M 215.652344 1463.167969 C 290 1463.167969 350.265625 1402.902344 350.265625 1328.554688 C 350.265625 1254.210938 290 1193.941406 215.652344 1193.941406 C 141.308594 1193.941406 81.039062 1254.210938 81.039062 1328.554688 C 81.039062 1402.902344 141.308594 1463.167969 215.652344 1463.167969 Z M 215.652344 1463.167969 "
            clip-rule="nonzero"/>
      </clipPath>
      <clipPath id="8be788a43a">
         <path d="M 562.5 562.5 L 937.5 562.5 L 937.5 937.5 L 562.5 937.5 Z M 562.5 562.5 " clip-rule="nonzero"/>
      </clipPath>
      <clipPath id="f0fdaa9961">
         <path
            d="M 750 562.5 C 646.445312 562.5 562.5 646.445312 562.5 750 C 562.5 853.554688 646.445312 937.5 750 937.5 C 853.554688 937.5 937.5 853.554688 937.5 750 C 937.5 646.445312 853.554688 562.5 750 562.5 Z M 750 562.5 "
            clip-rule="nonzero"/>
      </clipPath>
      <clipPath id="10a9c65acf">
         <path d="M 0.5 0.5 L 375.5 0.5 L 375.5 375.5 L 0.5 375.5 Z M 0.5 0.5 " clip-rule="nonzero"/>
      </clipPath>
      <clipPath id="d64655fb58">
         <path
            d="M 188 0.5 C 84.445312 0.5 0.5 84.445312 0.5 188 C 0.5 291.554688 84.445312 375.5 188 375.5 C 291.554688 375.5 375.5 291.554688 375.5 188 C 375.5 84.445312 291.554688 0.5 188 0.5 Z M 188 0.5 "
            clip-rule="nonzero"/>
      </clipPath>
      <clipPath id="016e508851">
         <rect x="0" width="376" y="0" height="376"/>
      </clipPath>
   </defs>
<!--   <rect x="-150" width="1800" fill="#ffffff" y="-149.999993" height="1799.99992" fill-opacity="1"/>-->
   <path stroke-linecap="butt" transform="matrix(0.531968, 0.528687, -0.528687, 0.531968, 158.755229, 240.746854)"
         fill="none" stroke-linejoin="miter"
         d="M 46.535223 34.376678 C 219.042572 473.204339 513.027342 473.203813 928.489533 34.375102 " stroke="#041c2c"
         stroke-width="100" stroke-opacity="1" stroke-miterlimit="4"/>
   <path stroke-linecap="butt" transform="matrix(0.504285, -0.555155, 0.555155, 0.504285, 730.236186, 750.796427)"
         fill="none" stroke-linejoin="miter" d="M 0.00106758 27.500776 L 1041.71494 27.500195 " stroke="#041c2c"
         stroke-width="55" stroke-opacity="1" stroke-miterlimit="4"/>
   <path stroke-linecap="butt" transform="matrix(0.75, 0.000652679, -0.000652679, 0.75, 317.658815, 133.191444)"
         fill="none" stroke-linejoin="miter" d="M -0.00157449 49.999975 L 1149.108341 49.999975 " stroke="#041c2c"
         stroke-width="100" stroke-opacity="1" stroke-miterlimit="4"/>
   <g clip-path="url(#95575b8948)">
      <g clip-path="url(#a3f3bad122)">
         <g transform="matrix(1, 0, 0, 1, 73, 36)">
            <g clip-path="url(#85437c60d2)">
               <g clip-path="url(#9b837798ec)">
                  <g clip-path="url(#d2259d3ff9)">
                     <path fill="#041c2c"
                           d="M 0.144531 0.828125 L 269.375 0.828125 L 269.375 270.054688 L 0.144531 270.054688 Z M 0.144531 0.828125 "
                           fill-opacity="1" fill-rule="nonzero"/>
                  </g>
               </g>
            </g>
         </g>
      </g>
   </g>
   <g clip-path="url(#acf2ce6286)">
      <g clip-path="url(#ae8b4c981e)">
         <path stroke-linecap="butt" transform="matrix(0.75, 0, 0, 0.75, 73.144714, 36.826299)" fill="none"
               stroke-linejoin="miter"
               d="M 179.484146 0.002435 C 80.359138 0.002435 -0.000244 80.356609 -0.000244 179.486825 C -0.000244 278.611834 80.359138 358.971216 179.484146 358.971216 C 278.609155 358.971216 358.968537 278.611834 358.968537 179.486825 C 358.968537 80.356609 278.609155 0.002435 179.484146 0.002435 Z M 179.484146 0.002435 "
               stroke="#0cc0df" stroke-width="100" stroke-opacity="1" stroke-miterlimit="4"/>
      </g>
   </g>
   <g clip-path="url(#d779c7c45b)">
      <g clip-path="url(#790ef13431)">
         <g transform="matrix(1, 0, 0, 1, 1149, 36)">
            <g clip-path="url(#1d043b11a0)">
               <g clip-path="url(#997bb8a1e7)">
                  <g clip-path="url(#1f9553ca5b)">
                     <path fill="#041c2c"
                           d="M 0.730469 0.828125 L 269.960938 0.828125 L 269.960938 270.054688 L 0.730469 270.054688 Z M 0.730469 0.828125 "
                           fill-opacity="1" fill-rule="nonzero"/>
                  </g>
               </g>
            </g>
         </g>
      </g>
   </g>
   <g clip-path="url(#9ab84fe20d)">
      <g clip-path="url(#41f4318a8a)">
         <path stroke-linecap="butt" transform="matrix(0.75, 0, 0, 0.75, 1149.728838, 36.826299)" fill="none"
               stroke-linejoin="miter"
               d="M 179.486564 0.002435 C 80.356347 0.002435 0.00217391 80.356609 0.00217391 179.486825 C 0.00217391 278.611834 80.356347 358.971216 179.486564 358.971216 C 278.611573 358.971216 358.970955 278.611834 358.970955 179.486825 C 358.970955 80.356609 278.611573 0.002435 179.486564 0.002435 Z M 179.486564 0.002435 "
               stroke="#0cc0df" stroke-width="100" stroke-opacity="1" stroke-miterlimit="4"/>
      </g>
   </g>
   <path stroke-linecap="butt" transform="matrix(-0.531968, -0.528687, 0.528687, -0.531968, 1341.244598, 1259.243776)"
         fill="none" stroke-linejoin="miter"
         d="M 46.533595 34.375367 C 219.040944 473.203028 513.029385 473.206196 928.487904 34.373791 " stroke="#041c2c"
         stroke-width="100" stroke-opacity="1" stroke-miterlimit="4"/>
   <path stroke-linecap="butt" transform="matrix(-0.504285, 0.555155, -0.555155, -0.504285, 769.756671, 749.203403)"
         fill="none" stroke-linejoin="miter" d="M 0.00183523 27.501286 L 1041.712206 27.49685 " stroke="#041c2c"
         stroke-width="55" stroke-opacity="1" stroke-miterlimit="4"/>
   <path stroke-linecap="butt" transform="matrix(-0.75, -0.00065268, 0.00065268, -0.75, 1182.330412, 1366.808406)"
         fill="none" stroke-linejoin="miter" d="M -0.000314505 49.999774 L 1149.109601 49.999772 " stroke="#041c2c"
         stroke-width="100" stroke-opacity="1" stroke-miterlimit="4"/>
   <g clip-path="url(#339f96230f)">
      <g clip-path="url(#2fce4b6059)">
         <g transform="matrix(1, 0, 0, 1, 1157, 1193)">
            <g clip-path="url(#30d5eb8cfb)">
               <g clip-path="url(#241ec586d9)">
                  <g clip-path="url(#ae5674d821)">
                     <path fill="#041c2c"
                           d="M 269.851562 270.167969 L 0.621094 270.167969 L 0.621094 0.941406 L 269.851562 0.941406 Z M 269.851562 270.167969 "
                           fill-opacity="1" fill-rule="nonzero"/>
                  </g>
               </g>
            </g>
         </g>
      </g>
   </g>
   <g clip-path="url(#93179e18ec)">
      <g clip-path="url(#379a620f0e)">
         <path stroke-linecap="butt" transform="matrix(-0.75, 0, 0, -0.75, 1426.851582, 1463.169814)" fill="none"
               stroke-linejoin="miter"
               d="M 179.484417 0.0024603 C 80.359409 0.0024603 0.0000266007 80.356634 0.0000266007 179.486851 C 0.0000266007 278.611859 80.359409 358.971241 179.484417 358.971241 C 278.609426 358.971241 358.968808 278.611859 358.968808 179.486851 C 358.968808 80.356634 278.609426 0.0024603 179.484417 0.0024603 Z M 179.484417 0.0024603 "
               stroke="#0cc0df" stroke-width="100" stroke-opacity="1" stroke-miterlimit="4"/>
      </g>
   </g>
   <g clip-path="url(#d9abf8178a)">
      <g clip-path="url(#3c5de0fd8b)">
         <g transform="matrix(1, 0, 0, 1, 81, 1193)">
            <g clip-path="url(#0ed3da7d60)">
               <g clip-path="url(#c44527e2e7)">
                  <g clip-path="url(#eda2ecfdb6)">
                     <path fill="#041c2c"
                           d="M 269.265625 270.167969 L 0.0390625 270.167969 L 0.0390625 0.941406 L 269.265625 0.941406 Z M 269.265625 270.167969 "
                           fill-opacity="1" fill-rule="nonzero"/>
                  </g>
               </g>
            </g>
         </g>
      </g>
   </g>
   <g clip-path="url(#ff855b4f7e)">
      <g clip-path="url(#127df16cb8)">
         <path stroke-linecap="butt" transform="matrix(-0.75, 0, 0, -0.75, 350.267463, 1463.169814)" fill="none"
               stroke-linejoin="miter"
               d="M 179.486841 0.0024603 C 80.356624 0.0024603 0.00245091 80.356634 0.00245091 179.486851 C 0.00245091 278.611859 80.356624 358.971241 179.486841 358.971241 C 278.61185 358.971241 358.971232 278.611859 358.971232 179.486851 C 358.971232 80.356634 278.61185 0.0024603 179.486841 0.0024603 Z M 179.486841 0.0024603 "
               stroke="#0cc0df" stroke-width="100" stroke-opacity="1" stroke-miterlimit="4"/>
      </g>
   </g>
   <g clip-path="url(#8be788a43a)">
      <g clip-path="url(#f0fdaa9961)">
         <g transform="matrix(1, 0, 0, 1, 562, 562)">
            <g clip-path="url(#016e508851)">
               <g clip-path="url(#10a9c65acf)">
                  <g clip-path="url(#d64655fb58)">
                     <path fill="#0cc0df" d="M 0.5 0.5 L 375.5 0.5 L 375.5 375.5 L 0.5 375.5 Z M 0.5 0.5 "
                           fill-opacity="1" fill-rule="nonzero"/>
                  </g>
               </g>
            </g>
         </g>
         <path stroke-linecap="butt" transform="matrix(0.75, 0, 0, 0.75, 562.499985, 562.499932)" fill="none"
               stroke-linejoin="miter"
               d="M 250.000042 0.0000912667 C 111.927113 0.0000912667 0.0000201333 111.927184 0.0000201333 250.000113 C 0.0000201333 388.073041 111.927113 500.000134 250.000042 500.000134 C 388.07297 500.000134 500.000063 388.073041 500.000063 250.000113 C 500.000063 111.927184 388.07297 0.0000912667 250.000042 0.0000912667 Z M 250.000042 0.0000912667 "
               stroke="#041c2c" stroke-width="200" stroke-opacity="1" stroke-miterlimit="4"/>
      </g>
   </g>
</svg>
