<svg xmlns="http://www.w3.org/2000/svg" xmlns:xlink="http://www.w3.org/1999/xlink" width="2000" zoomAndPan="magnify"
     viewBox="0 0 1500 1499.999933" height="2000" preserveAspectRatio="xMidYMid meet" version="1.0">
   <defs>
      <clipPath id="a273077c49">
         <path
            d="M 73.144531 36.828125 L 342.375 36.828125 L 342.375 306.054688 L 73.144531 306.054688 Z M 73.144531 36.828125 "
            clip-rule="nonzero"/>
      </clipPath>
      <clipPath id="c6dd099d5d">
         <path
            d="M 207.761719 36.828125 C 133.414062 36.828125 73.144531 97.09375 73.144531 171.441406 C 73.144531 245.789062 133.414062 306.054688 207.761719 306.054688 C 282.105469 306.054688 342.375 245.789062 342.375 171.441406 C 342.375 97.09375 282.105469 36.828125 207.761719 36.828125 Z M 207.761719 36.828125 "
            clip-rule="nonzero"/>
      </clipPath>
      <clipPath id="02ce21c8d7">
         <path
            d="M 0.144531 0.828125 L 269.375 0.828125 L 269.375 270.054688 L 0.144531 270.054688 Z M 0.144531 0.828125 "
            clip-rule="nonzero"/>
      </clipPath>
      <clipPath id="9de6b9494d">
         <path
            d="M 134.761719 0.828125 C 60.414062 0.828125 0.144531 61.09375 0.144531 135.441406 C 0.144531 209.789062 60.414062 270.054688 134.761719 270.054688 C 209.105469 270.054688 269.375 209.789062 269.375 135.441406 C 269.375 61.09375 209.105469 0.828125 134.761719 0.828125 Z M 134.761719 0.828125 "
            clip-rule="nonzero"/>
      </clipPath>
      <clipPath id="318114a4dd">
         <rect x="0" width="270" y="0" height="271"/>
      </clipPath>
      <clipPath id="a55a81e833">
         <path
            d="M 73.144531 36.828125 L 342.371094 36.828125 L 342.371094 306.054688 L 73.144531 306.054688 Z M 73.144531 36.828125 "
            clip-rule="nonzero"/>
      </clipPath>
      <clipPath id="2395c4a21f">
         <path
            d="M 207.757812 36.828125 C 133.414062 36.828125 73.144531 97.09375 73.144531 171.441406 C 73.144531 245.785156 133.414062 306.054688 207.757812 306.054688 C 282.101562 306.054688 342.371094 245.785156 342.371094 171.441406 C 342.371094 97.09375 282.101562 36.828125 207.757812 36.828125 Z M 207.757812 36.828125 "
            clip-rule="nonzero"/>
      </clipPath>
      <clipPath id="6b55e3c10a">
         <path
            d="M 1149.730469 36.828125 L 1418.960938 36.828125 L 1418.960938 306.054688 L 1149.730469 306.054688 Z M 1149.730469 36.828125 "
            clip-rule="nonzero"/>
      </clipPath>
      <clipPath id="e512750d86">
         <path
            d="M 1284.34375 36.828125 C 1210 36.828125 1149.730469 97.09375 1149.730469 171.441406 C 1149.730469 245.789062 1210 306.054688 1284.34375 306.054688 C 1358.691406 306.054688 1418.960938 245.789062 1418.960938 171.441406 C 1418.960938 97.09375 1358.691406 36.828125 1284.34375 36.828125 Z M 1284.34375 36.828125 "
            clip-rule="nonzero"/>
      </clipPath>
      <clipPath id="75e897f353">
         <path
            d="M 0.730469 0.828125 L 269.960938 0.828125 L 269.960938 270.054688 L 0.730469 270.054688 Z M 0.730469 0.828125 "
            clip-rule="nonzero"/>
      </clipPath>
      <clipPath id="1d1ddc99c0">
         <path
            d="M 135.34375 0.828125 C 61 0.828125 0.730469 61.09375 0.730469 135.441406 C 0.730469 209.789062 61 270.054688 135.34375 270.054688 C 209.691406 270.054688 269.960938 209.789062 269.960938 135.441406 C 269.960938 61.09375 209.691406 0.828125 135.34375 0.828125 Z M 135.34375 0.828125 "
            clip-rule="nonzero"/>
      </clipPath>
      <clipPath id="3309fa48c2">
         <rect x="0" width="270" y="0" height="271"/>
      </clipPath>
      <clipPath id="9858bfd26d">
         <path
            d="M 1149.730469 36.828125 L 1418.957031 36.828125 L 1418.957031 306.054688 L 1149.730469 306.054688 Z M 1149.730469 36.828125 "
            clip-rule="nonzero"/>
      </clipPath>
      <clipPath id="039a9fb7c7">
         <path
            d="M 1284.34375 36.828125 C 1209.996094 36.828125 1149.730469 97.09375 1149.730469 171.441406 C 1149.730469 245.785156 1209.996094 306.054688 1284.34375 306.054688 C 1358.6875 306.054688 1418.957031 245.785156 1418.957031 171.441406 C 1418.957031 97.09375 1358.6875 36.828125 1284.34375 36.828125 Z M 1284.34375 36.828125 "
            clip-rule="nonzero"/>
      </clipPath>
      <clipPath id="df3b8e8343">
         <path
            d="M 1157.621094 1193.941406 L 1426.851562 1193.941406 L 1426.851562 1463.171875 L 1157.621094 1463.171875 Z M 1157.621094 1193.941406 "
            clip-rule="nonzero"/>
      </clipPath>
      <clipPath id="fd52e8bfde">
         <path
            d="M 1292.238281 1463.171875 C 1366.582031 1463.171875 1426.851562 1402.902344 1426.851562 1328.554688 C 1426.851562 1254.207031 1366.582031 1193.941406 1292.238281 1193.941406 C 1217.890625 1193.941406 1157.621094 1254.207031 1157.621094 1328.554688 C 1157.621094 1402.902344 1217.890625 1463.171875 1292.238281 1463.171875 Z M 1292.238281 1463.171875 "
            clip-rule="nonzero"/>
      </clipPath>
      <clipPath id="6a7ee01736">
         <path
            d="M 0.621094 0.941406 L 269.851562 0.941406 L 269.851562 270.171875 L 0.621094 270.171875 Z M 0.621094 0.941406 "
            clip-rule="nonzero"/>
      </clipPath>
      <clipPath id="8e5b1c95e9">
         <path
            d="M 135.238281 270.171875 C 209.582031 270.171875 269.851562 209.902344 269.851562 135.554688 C 269.851562 61.207031 209.582031 0.941406 135.238281 0.941406 C 60.890625 0.941406 0.621094 61.207031 0.621094 135.554688 C 0.621094 209.902344 60.890625 270.171875 135.238281 270.171875 Z M 135.238281 270.171875 "
            clip-rule="nonzero"/>
      </clipPath>
      <clipPath id="5b05c4d8de">
         <rect x="0" width="270" y="0" height="271"/>
      </clipPath>
      <clipPath id="c125180247">
         <path
            d="M 1157.625 1193.945312 L 1426.851562 1193.945312 L 1426.851562 1463.167969 L 1157.625 1463.167969 Z M 1157.625 1193.945312 "
            clip-rule="nonzero"/>
      </clipPath>
      <clipPath id="cf33fff553">
         <path
            d="M 1292.238281 1463.171875 C 1366.582031 1463.171875 1426.851562 1402.902344 1426.851562 1328.558594 C 1426.851562 1254.210938 1366.582031 1193.945312 1292.238281 1193.945312 C 1217.894531 1193.945312 1157.625 1254.210938 1157.625 1328.558594 C 1157.625 1402.902344 1217.894531 1463.171875 1292.238281 1463.171875 Z M 1292.238281 1463.171875 "
            clip-rule="nonzero"/>
      </clipPath>
      <clipPath id="724727141b">
         <path
            d="M 81.039062 1193.941406 L 350.265625 1193.941406 L 350.265625 1463.171875 L 81.039062 1463.171875 Z M 81.039062 1193.941406 "
            clip-rule="nonzero"/>
      </clipPath>
      <clipPath id="604f14a9a4">
         <path
            d="M 215.652344 1463.171875 C 290 1463.171875 350.265625 1402.902344 350.265625 1328.554688 C 350.265625 1254.207031 290 1193.941406 215.652344 1193.941406 C 141.304688 1193.941406 81.039062 1254.207031 81.039062 1328.554688 C 81.039062 1402.902344 141.304688 1463.171875 215.652344 1463.171875 Z M 215.652344 1463.171875 "
            clip-rule="nonzero"/>
      </clipPath>
      <clipPath id="a285e07471">
         <path
            d="M 0.0390625 0.941406 L 269.265625 0.941406 L 269.265625 270.171875 L 0.0390625 270.171875 Z M 0.0390625 0.941406 "
            clip-rule="nonzero"/>
      </clipPath>
      <clipPath id="c127aebc17">
         <path
            d="M 134.652344 270.171875 C 209 270.171875 269.265625 209.902344 269.265625 135.554688 C 269.265625 61.207031 209 0.941406 134.652344 0.941406 C 60.304688 0.941406 0.0390625 61.207031 0.0390625 135.554688 C 0.0390625 209.902344 60.304688 270.171875 134.652344 270.171875 Z M 134.652344 270.171875 "
            clip-rule="nonzero"/>
      </clipPath>
      <clipPath id="5fa2512e6c">
         <rect x="0" width="270" y="0" height="271"/>
      </clipPath>
      <clipPath id="0830252d45">
         <path
            d="M 81.039062 1193.945312 L 350.265625 1193.945312 L 350.265625 1463.167969 L 81.039062 1463.167969 Z M 81.039062 1193.945312 "
            clip-rule="nonzero"/>
      </clipPath>
      <clipPath id="3c51326e54">
         <path
            d="M 215.652344 1463.171875 C 290 1463.171875 350.265625 1402.902344 350.265625 1328.558594 C 350.265625 1254.210938 290 1193.945312 215.652344 1193.945312 C 141.308594 1193.945312 81.039062 1254.210938 81.039062 1328.558594 C 81.039062 1402.902344 141.308594 1463.171875 215.652344 1463.171875 Z M 215.652344 1463.171875 "
            clip-rule="nonzero"/>
      </clipPath>
      <clipPath id="227130985d">
         <path d="M 562.5 562.5 L 937.5 562.5 L 937.5 937.5 L 562.5 937.5 Z M 562.5 562.5 " clip-rule="nonzero"/>
      </clipPath>
      <clipPath id="e8c9fe9211">
         <path
            d="M 750 562.5 C 646.445312 562.5 562.5 646.445312 562.5 750 C 562.5 853.554688 646.445312 937.5 750 937.5 C 853.554688 937.5 937.5 853.554688 937.5 750 C 937.5 646.445312 853.554688 562.5 750 562.5 Z M 750 562.5 "
            clip-rule="nonzero"/>
      </clipPath>
      <clipPath id="3636463a78">
         <path d="M 0.5 0.5 L 375.5 0.5 L 375.5 375.5 L 0.5 375.5 Z M 0.5 0.5 " clip-rule="nonzero"/>
      </clipPath>
      <clipPath id="897f3d1519">
         <path
            d="M 188 0.5 C 84.445312 0.5 0.5 84.445312 0.5 188 C 0.5 291.554688 84.445312 375.5 188 375.5 C 291.554688 375.5 375.5 291.554688 375.5 188 C 375.5 84.445312 291.554688 0.5 188 0.5 Z M 188 0.5 "
            clip-rule="nonzero"/>
      </clipPath>
      <clipPath id="d4c625e670">
         <rect x="0" width="376" y="0" height="376"/>
      </clipPath>
   </defs>

<!--   <rect x="-150" width="1800" fill="#ffffff" y="-149.999993" height="1799.99992" fill-opacity="1"/>-->
<!--   <rect x="-150" width="1800" fill="#000000" y="-149.999993" height="1799.99992" fill-opacity="1"/>-->
   <path stroke-linecap="butt" transform="matrix(0.531968, 0.528687, -0.528687, 0.531968, 158.755229, 240.746796)"
         fill="none" stroke-linejoin="miter"
         d="M 46.535277 34.376733 C 219.042626 473.204393 513.027396 473.203868 928.489587 34.375157 " stroke="#d9d9d9"
         stroke-width="100" stroke-opacity="1" stroke-miterlimit="4"/>
   <path stroke-linecap="butt" transform="matrix(0.504285, -0.555155, 0.555155, 0.504285, 730.236186, 750.796331)"
         fill="none" stroke-linejoin="miter" d="M 0.000972831 27.500862 L 1041.714846 27.500281 " stroke="#d9d9d9"
         stroke-width="55" stroke-opacity="1" stroke-miterlimit="4"/>
   <path stroke-linecap="butt" transform="matrix(0.75, 0.000652679, -0.000652679, 0.75, 317.658815, 133.191415)"
         fill="none" stroke-linejoin="miter" d="M -0.00157445 50.000013 L 1149.108341 50.000014 " stroke="#d9d9d9"
         stroke-width="100" stroke-opacity="1" stroke-miterlimit="4"/>
   <g clip-path="url(#a273077c49)">
      <g clip-path="url(#c6dd099d5d)">
         <g transform="matrix(1, 0, 0, 1, 73, 36)">
            <g clip-path="url(#318114a4dd)">
               <g clip-path="url(#02ce21c8d7)">
                  <g clip-path="url(#9de6b9494d)">
                     <path fill="#0cc0df"
                           d="M 0.144531 0.828125 L 269.375 0.828125 L 269.375 270.054688 L 0.144531 270.054688 Z M 0.144531 0.828125 "
                           fill-opacity="1" fill-rule="nonzero"/>
                  </g>
               </g>
            </g>
         </g>
      </g>
   </g>
   <g clip-path="url(#a55a81e833)">
      <g clip-path="url(#2395c4a21f)">
         <path stroke-linecap="butt" transform="matrix(0.75, 0, 0, 0.75, 73.144714, 36.826383)" fill="none"
               stroke-linejoin="miter"
               d="M 179.484146 0.00232268 C 80.359138 0.00232268 -0.000244 80.356496 -0.000244 179.486713 C -0.000244 278.611722 80.359138 358.971104 179.484146 358.971104 C 278.609155 358.971104 358.968537 278.611722 358.968537 179.486713 C 358.968537 80.356496 278.609155 0.00232268 179.484146 0.00232268 Z M 179.484146 0.00232268 "
               stroke="#d9d9d9" stroke-width="100" stroke-opacity="1" stroke-miterlimit="4"/>
      </g>
   </g>
   <g clip-path="url(#6b55e3c10a)">
      <g clip-path="url(#e512750d86)">
         <g transform="matrix(1, 0, 0, 1, 1149, 36)">
            <g clip-path="url(#3309fa48c2)">
               <g clip-path="url(#75e897f353)">
                  <g clip-path="url(#1d1ddc99c0)">
                     <path fill="#0cc0df"
                           d="M 0.730469 0.828125 L 269.960938 0.828125 L 269.960938 270.054688 L 0.730469 270.054688 Z M 0.730469 0.828125 "
                           fill-opacity="1" fill-rule="nonzero"/>
                  </g>
               </g>
            </g>
         </g>
      </g>
   </g>
   <g clip-path="url(#9858bfd26d)">
      <g clip-path="url(#039a9fb7c7)">
         <path stroke-linecap="butt" transform="matrix(0.75, 0, 0, 0.75, 1149.728838, 36.826383)" fill="none"
               stroke-linejoin="miter"
               d="M 179.486564 0.00232268 C 80.356347 0.00232268 0.00217391 80.356496 0.00217391 179.486713 C 0.00217391 278.611722 80.356347 358.971104 179.486564 358.971104 C 278.611573 358.971104 358.970955 278.611722 358.970955 179.486713 C 358.970955 80.356496 278.611573 0.00232268 179.486564 0.00232268 Z M 179.486564 0.00232268 "
               stroke="#d9d9d9" stroke-width="100" stroke-opacity="1" stroke-miterlimit="4"/>
      </g>
   </g>
   <path stroke-linecap="butt" transform="matrix(-0.531968, -0.528687, 0.528687, -0.531968, 1341.244598, 1259.243776)"
         fill="none" stroke-linejoin="miter"
         d="M 46.533595 34.375367 C 219.040944 473.203028 513.029385 473.206196 928.487904 34.373791 " stroke="#d9d9d9"
         stroke-width="100" stroke-opacity="1" stroke-miterlimit="4"/>
   <path stroke-linecap="butt" transform="matrix(-0.504285, 0.555155, -0.555155, -0.504285, 769.756671, 749.203499)"
         fill="none" stroke-linejoin="miter" d="M 0.00174048 27.501372 L 1041.712111 27.496936 " stroke="#d9d9d9"
         stroke-width="55" stroke-opacity="1" stroke-miterlimit="4"/>
   <path stroke-linecap="butt" transform="matrix(-0.75, -0.00065268, 0.00065268, -0.75, 1182.330412, 1366.80831)"
         fill="none" stroke-linejoin="miter" d="M -0.000314617 49.999646 L 1149.109601 49.999644 " stroke="#d9d9d9"
         stroke-width="100" stroke-opacity="1" stroke-miterlimit="4"/>
   <g clip-path="url(#df3b8e8343)">
      <g clip-path="url(#fd52e8bfde)">
         <g transform="matrix(1, 0, 0, 1, 1157, 1193)">
            <g clip-path="url(#5b05c4d8de)">
               <g clip-path="url(#6a7ee01736)">
                  <g clip-path="url(#8e5b1c95e9)">
                     <path fill="#0cc0df"
                           d="M 269.851562 270.171875 L 0.621094 270.171875 L 0.621094 0.941406 L 269.851562 0.941406 Z M 269.851562 270.171875 "
                           fill-opacity="1" fill-rule="nonzero"/>
                  </g>
               </g>
            </g>
         </g>
      </g>
   </g>
   <g clip-path="url(#c125180247)">
      <g clip-path="url(#cf33fff553)">
         <path stroke-linecap="butt" transform="matrix(-0.75, 0, 0, -0.75, 1426.851582, 1463.169934)" fill="none"
               stroke-linejoin="miter"
               d="M 179.484417 -0.00258804 C 80.359409 -0.00258804 0.0000266007 80.356794 0.0000266007 179.481802 C 0.0000266007 278.612019 80.359409 358.966193 179.484417 358.966193 C 278.609426 358.966193 358.968808 278.612019 358.968808 179.481802 C 358.968808 80.356794 278.609426 -0.00258804 179.484417 -0.00258804 Z M 179.484417 -0.00258804 "
               stroke="#d9d9d9" stroke-width="100" stroke-opacity="1" stroke-miterlimit="4"/>
      </g>
   </g>
   <g clip-path="url(#724727141b)">
      <g clip-path="url(#604f14a9a4)">
         <g transform="matrix(1, 0, 0, 1, 81, 1193)">
            <g clip-path="url(#5fa2512e6c)">
               <g clip-path="url(#a285e07471)">
                  <g clip-path="url(#c127aebc17)">
                     <path fill="#0cc0df"
                           d="M 269.265625 270.171875 L 0.0390625 270.171875 L 0.0390625 0.941406 L 269.265625 0.941406 Z M 269.265625 270.171875 "
                           fill-opacity="1" fill-rule="nonzero"/>
                  </g>
               </g>
            </g>
         </g>
      </g>
   </g>
   <g clip-path="url(#0830252d45)">
      <g clip-path="url(#3c51326e54)">
         <path stroke-linecap="butt" transform="matrix(-0.75, 0, 0, -0.75, 350.267463, 1463.169934)" fill="none"
               stroke-linejoin="miter"
               d="M 179.486841 -0.00258804 C 80.356624 -0.00258804 0.00245091 80.356794 0.00245091 179.481802 C 0.00245091 278.612019 80.356624 358.966193 179.486841 358.966193 C 278.61185 358.966193 358.971232 278.612019 358.971232 179.481802 C 358.971232 80.356794 278.61185 -0.00258804 179.486841 -0.00258804 Z M 179.486841 -0.00258804 "
               stroke="#d9d9d9" stroke-width="100" stroke-opacity="1" stroke-miterlimit="4"/>
      </g>
   </g>
   <g clip-path="url(#227130985d)">
      <g clip-path="url(#e8c9fe9211)">
         <g transform="matrix(1, 0, 0, 1, 562, 562)">
            <g clip-path="url(#d4c625e670)">
               <g clip-path="url(#3636463a78)">
                  <g clip-path="url(#897f3d1519)">
                     <path fill="#d9d9d9" d="M 0.5 0.5 L 375.5 0.5 L 375.5 375.5 L 0.5 375.5 Z M 0.5 0.5 "
                           fill-opacity="1" fill-rule="nonzero"/>
                  </g>
               </g>
            </g>
         </g>
         <path stroke-linecap="butt" transform="matrix(0.75, 0, 0, 0.75, 562.499985, 562.499932)" fill="none"
               stroke-linejoin="miter"
               d="M 250.000042 0.0000912667 C 111.927113 0.0000912667 0.0000201333 111.927184 0.0000201333 250.000113 C 0.0000201333 388.073041 111.927113 500.000134 250.000042 500.000134 C 388.07297 500.000134 500.000063 388.073041 500.000063 250.000113 C 500.000063 111.927184 388.07297 0.0000912667 250.000042 0.0000912667 Z M 250.000042 0.0000912667 "
               stroke="#0cc0df" stroke-width="200" stroke-opacity="1" stroke-miterlimit="4"/>
      </g>
   </g>
</svg>
